<?xml version="1.0" encoding="UTF-8" standalone="no"?>
<svg
   width="1024"
   height="1024"
   version="1.1"
   id="svg72"
   sodipodi:docname="flat-representation.svg"
   inkscape:version="1.3 (0e150ed6c4, 2023-07-21)"
   xmlns:inkscape="http://www.inkscape.org/namespaces/inkscape"
   xmlns:sodipodi="http://sodipodi.sourceforge.net/DTD/sodipodi-0.dtd"
   xmlns:xlink="http://www.w3.org/1999/xlink"
   xmlns="http://www.w3.org/2000/svg"
   xmlns:svg="http://www.w3.org/2000/svg">
  <sodipodi:namedview
     id="namedview1"
     pagecolor="#ffffff"
     bordercolor="#000000"
     borderopacity="0.25"
     inkscape:showpageshadow="2"
     inkscape:pageopacity="0.0"
     inkscape:pagecheckerboard="0"
     inkscape:deskcolor="#d1d1d1"
     inkscape:zoom="1.4716797"
     inkscape:cx="512.67949"
     inkscape:cy="512.67949"
     inkscape:window-width="3200"
     inkscape:window-height="1721"
     inkscape:window-x="2391"
     inkscape:window-y="-9"
     inkscape:window-maximized="1"
     inkscape:current-layer="svg72" />
  <path
     fill="url(#gradient_0)"
     d="m 298.48025,233.32677 c 17.76553,1.04403 71.78687,-35.43636 94.34886,-42.96917 26.68958,-8.91068 53.40949,-11.67252 81.21593,-14.29474 72.2506,-6.82262 118.74642,-4.80132 185.84364,28.27384 1.15937,0.57057 2.30659,1.17148 3.45988,1.75421 l 4.58888,-3.15638 c 100.40909,47.71588 150.65614,126.51596 188.0106,227.97517 7.31431,36.29829 13.79701,74.49042 7.39321,111.44426 -3.25956,91.44987 -46.16197,178.00734 -112.91927,239.78123 -35.20571,32.58348 -75.40091,57.66451 -121.09549,72.50551 -18.88361,5.72397 -38.50169,9.8819 -57.92552,13.26898 q -8.85607,1.55386 -17.77889,2.67072 -8.92283,1.11685 -17.88815,1.79064 -8.96531,0.67378 -17.95491,0.90443 -8.9896,0.23064 -17.97918,0.0185 -8.9896,-0.21847 -17.95492,-0.88017 -8.97138,-0.65548 -17.89421,-1.76024 -8.92282,-1.09864 -17.77887,-2.64654 -8.86213,-1.5417 -17.63322,-3.5205 -8.77106,-1.97888 -17.43289,-4.38865 -8.66181,-2.40977 -17.19617,-5.24438 -8.53434,-2.83469 -16.91694,-6.08818 -8.3826,-3.2535 -16.58918,-6.91974 -8.21263,-3.66626 -16.23104,-7.73311 -8.02447,-4.06687 -15.83043,-8.52222 -7.80899,-4.46141 -15.38732,-9.29916 -7.57894,-4.83774 -14.90901,-10.04576 C 220.2817,749.83091 172.80437,662.14442 157.46257,568.58222 q -2.12205,-16.91695 -2.70295,-33.9553 -0.58089,-17.03835 0.38423,-34.05848 0.96512,-17.02014 3.46837,-33.88247 2.50264,-16.86838 6.52338,-33.43328 c 18.4235,-75.45553 65.49536,-158.61384 133.34465,-199.92592 z"
     id="path1"
     style="fill:url(#linearGradient1);stroke-width:6.06995" />
  <path
     fill="#1096AE"
     d="M95.5224 295.334C101.054 290.784 108.925 287.78 115.793 286.011C128.992 282.611 144.437 283.239 156.389 290.327L155.633 290.847C155.443 290.751 155.254 290.652 155.063 290.558C144.009 285.109 136.349 284.776 124.446 285.9C119.865 286.332 115.463 286.787 111.066 288.255C107.349 289.496 98.4492 295.506 95.5224 295.334Z"
     id="path2" />
  <path
     fill="#FFBA42"
     d="M936.75 528.589C939.508 528.341 942.157 528.299 944.793 529.277C948.473 530.642 951.423 533.229 953.046 536.828Q953.355 537.52 953.59 538.241Q953.825 538.962 953.985 539.703Q954.144 540.444 954.226 541.197Q954.307 541.951 954.31 542.709Q954.314 543.467 954.238 544.221Q954.163 544.975 954.01 545.718Q953.856 546.46 953.627 547.183Q953.398 547.905 953.095 548.6C951.008 553.368 947.29 555.812 942.602 557.552C939.494 557.945 936.463 557.839 933.544 556.588Q932.872 556.303 932.233 555.951Q931.593 555.6 930.992 555.187Q930.39 554.773 929.833 554.302Q929.276 553.831 928.769 553.306Q928.262 552.781 927.81 552.208Q927.357 551.636 926.965 551.021Q926.572 550.405 926.243 549.754Q925.914 549.103 925.651 548.422C924.207 544.681 924.418 540.597 926.133 536.984C928.38 532.249 932.047 530.218 936.75 528.589Z"
     id="path3" />
  <path
     fill="#FFBA42"
     d="M209.815 211.089C212.8 210.906 215.778 211.047 218.605 212.116Q218.976 212.253 219.34 212.409Q219.704 212.566 220.059 212.741Q220.414 212.916 220.759 213.11Q221.104 213.304 221.439 213.515Q221.773 213.727 222.096 213.956Q222.419 214.185 222.729 214.431Q223.039 214.677 223.336 214.939Q223.633 215.2 223.916 215.477Q224.199 215.755 224.466 216.046Q224.734 216.338 224.986 216.643Q225.238 216.948 225.473 217.267Q225.709 217.585 225.927 217.915Q226.146 218.245 226.346 218.586Q226.547 218.928 226.729 219.279Q226.912 219.63 227.075 219.991Q227.239 220.351 227.383 220.72Q227.672 221.446 227.885 222.197Q228.098 222.948 228.233 223.717Q228.368 224.486 228.424 225.265Q228.48 226.044 228.456 226.825Q228.433 227.605 228.329 228.379Q228.226 229.153 228.044 229.913Q227.863 230.672 227.604 231.409Q227.346 232.146 227.014 232.853C224.79 237.52 220.9 239.79 216.241 241.469C212.523 241.585 209.163 241.531 205.761 239.761C201.953 237.78 199.166 234.458 197.999 230.315C196.889 226.372 197.435 221.791 199.519 218.256C201.898 214.22 205.439 212.32 209.815 211.089Z"
     id="path4" />
  <path
     fill="#FFBA42"
     d="M778.487 883.633C781.837 883.907 784.947 884.524 787.81 886.384Q788.421 886.781 788.989 887.236Q789.556 887.692 790.076 888.202Q790.596 888.712 791.062 889.272Q791.528 889.831 791.936 890.434Q792.345 891.037 792.691 891.678Q793.037 892.318 793.317 892.99Q793.597 893.662 793.809 894.359Q794.021 895.056 794.163 895.77C795.035 899.95 794.269 904.469 791.871 908.025C788.891 912.446 784.804 913.988 779.827 914.994C776.244 914.824 772.918 914.147 769.918 912.084Q769.3 911.663 768.728 911.183Q768.155 910.703 767.634 910.168Q767.112 909.633 766.647 909.048Q766.181 908.463 765.776 907.835Q765.372 907.207 765.032 906.541Q764.692 905.876 764.42 905.179Q764.149 904.483 763.948 903.763Q763.748 903.043 763.62 902.307Q763.479 901.517 763.418 900.717Q763.358 899.917 763.379 899.115Q763.4 898.313 763.502 897.517Q763.604 896.721 763.786 895.94Q763.969 895.159 764.229 894.4Q764.49 893.641 764.826 892.912Q765.163 892.184 765.571 891.493Q765.98 890.803 766.456 890.157C769.511 886.042 773.584 884.411 778.487 883.633Z"
     id="path5" />
  <path
     fill="#28B1BF"
     d="M796.377 190.563C799.637 190.363 802.511 190.269 805.653 191.407Q806.432 191.682 807.18 192.035Q807.927 192.389 808.634 192.817Q809.342 193.245 810.001 193.743Q810.661 194.242 811.266 194.805Q811.871 195.368 812.415 195.991Q812.959 196.613 813.437 197.288Q813.914 197.963 814.32 198.683Q814.726 199.403 815.056 200.161Q815.388 200.919 815.641 201.707Q815.894 202.495 816.065 203.305Q816.235 204.115 816.322 204.938Q816.41 205.76 816.412 206.588Q816.414 207.416 816.332 208.239Q816.25 209.063 816.084 209.873Q815.918 210.684 815.67 211.474Q815.422 212.263 815.094 213.023C812.764 218.397 808.581 220.846 803.369 222.783C799.473 223.294 795.832 223.231 792.222 221.507Q791.5 221.158 790.817 220.738Q790.134 220.319 789.495 219.834Q788.857 219.349 788.27 218.803Q787.684 218.257 787.154 217.655Q786.624 217.053 786.157 216.401Q785.69 215.75 785.29 215.055Q784.89 214.36 784.561 213.629Q784.232 212.898 783.977 212.138Q783.707 211.362 783.515 210.563Q783.324 209.764 783.212 208.951Q783.1 208.137 783.069 207.316Q783.038 206.495 783.089 205.675Q783.14 204.855 783.271 204.044Q783.403 203.233 783.614 202.439Q783.825 201.645 784.113 200.876Q784.402 200.107 784.765 199.37C787.239 194.41 791.312 192.138 796.377 190.563Z"
     id="path6" />
  <path
     fill="#28B1BF"
     d="M196.321 842.685C202.924 842.211 210 844.098 215.508 847.75C221.78 851.908 225.927 858.285 227.348 865.661C228.926 873.854 227.408 882.371 222.706 889.308C217.635 896.788 210.033 900.455 201.354 901.999C193.235 902.203 185.658 900.639 179.147 895.534C172.918 890.649 169.066 883.233 168.205 875.408Q168.118 874.679 168.067 873.946Q168.017 873.213 168.004 872.479Q167.991 871.745 168.015 871.011Q168.039 870.277 168.1 869.545Q168.161 868.813 168.259 868.085Q168.357 867.357 168.491 866.635Q168.626 865.914 168.797 865.199Q168.968 864.485 169.175 863.78Q169.382 863.076 169.624 862.382Q169.866 861.689 170.143 861.009Q170.42 860.329 170.731 859.664Q171.043 858.998 171.387 858.35Q171.731 857.701 172.108 857.07Q172.484 856.44 172.893 855.829Q173.301 855.219 173.739 854.629Q174.177 854.04 174.645 853.474C180.307 846.56 187.645 843.573 196.321 842.685Z"
     id="path7" />
  <path
     fill="#FFBA42"
     d="M717.262 122.624C724.198 122.118 730.914 123.359 736.916 126.976C743.991 131.241 748.675 138.316 750.524 146.296Q750.696 147.041 750.832 147.793Q750.967 148.545 751.065 149.304Q751.163 150.062 751.223 150.824Q751.283 151.586 751.306 152.35Q751.328 153.114 751.312 153.878Q751.297 154.643 751.243 155.405Q751.19 156.168 751.098 156.927Q751.007 157.686 750.878 158.439Q750.75 159.193 750.583 159.939Q750.417 160.685 750.215 161.422Q750.012 162.159 749.773 162.885Q749.534 163.611 749.259 164.324Q748.984 165.038 748.674 165.737Q748.364 166.435 748.02 167.118Q747.676 167.801 747.299 168.465Q746.921 169.13 746.511 169.775C741.372 177.722 733.92 181.61 724.854 183.484C716.495 183.837 709.386 182.763 702.492 177.682Q701.87 177.225 701.271 176.739Q700.672 176.252 700.098 175.736Q699.524 175.22 698.977 174.676Q698.429 174.132 697.909 173.562Q697.389 172.992 696.898 172.397Q696.407 171.802 695.946 171.183Q695.485 170.564 695.055 169.923Q694.625 169.282 694.228 168.62Q693.83 167.959 693.466 167.278Q693.102 166.598 692.772 165.9Q692.442 165.203 692.147 164.49Q691.852 163.776 691.593 163.05Q691.333 162.323 691.11 161.584Q690.887 160.845 690.701 160.096Q690.515 159.347 690.367 158.59Q690.218 157.833 690.107 157.069C688.922 149.081 691.258 140.97 696.059 134.543C701.366 127.439 708.694 123.911 717.262 122.624Z"
     id="path8" />
  <path
     fill="#FFBA42"
     d="M873.583 402.492C882.402 422.631 888.181 444.441 892.157 466.017Q893.194 471.582 894.074 477.174Q894.953 482.766 895.676 488.38Q896.398 493.995 896.961 499.627Q897.525 505.26 897.93 510.906Q898.335 516.552 898.581 522.208Q898.826 527.863 898.913 533.523Q898.999 539.183 898.926 544.844Q898.854 550.504 898.621 556.16Q898.389 561.816 897.998 567.463Q897.606 573.11 897.056 578.744Q896.506 584.378 895.797 589.994Q895.089 595.61 894.222 601.204Q893.356 606.798 892.332 612.366Q891.309 617.933 890.129 623.469Q888.949 629.006 887.614 634.507Q886.279 640.008 884.789 645.469C882.008 656.065 879.546 666.993 875.601 677.222C874.835 679.208 873.977 681.177 872.844 682.983C871.891 673.267 872.627 662.825 872.631 653.034L872.671 593.961L873.583 402.492Z"
     id="path9" />
  <path
     fill="#77CBC7"
     d="M72.3075 565.881C91.0918 567.786 108.88 572.366 126.938 577.766C142.912 583.791 158.251 590.459 172.715 599.615C174.957 601.392 177.119 603.094 179.61 604.516Q187.466 610.432 194.989 616.766C197.633 618.949 200.432 621.801 203.356 623.503C205.49 629.84 206.749 636.412 208.731 642.792C211.41 651.415 215.036 659.625 218.788 667.82C221.285 672.025 223.611 676.326 226.177 680.49C227.634 682.854 229.666 685.293 230.909 687.726C222.838 689.53 214.143 689.096 205.935 688.734Q202.453 688.39 198.962 688.148C176.919 685.524 165.511 679.977 145.958 671.066C142.379 667.763 137.869 665.17 133.911 662.287C108.206 643.566 88.8318 614.06 77.8596 584.484C75.6553 578.543 73.2948 572.144 72.3075 565.881Z"
     id="path10" />
  <path
     fill="#28B1BF"
     d="M72.3075 565.881L72.7316 566.329C77.85 571.825 81.9948 578.113 87.1961 583.582Q92.6346 589.35 98.3459 594.848Q104.057 600.346 110.028 605.561Q115.999 610.776 122.215 615.696Q128.431 620.616 134.877 625.229Q141.324 629.843 147.987 634.139Q154.649 638.435 161.512 642.404Q168.375 646.372 175.421 650.004Q182.468 653.636 189.682 656.923C197.731 660.638 210.069 667.072 218.788 667.82C221.285 672.025 223.611 676.326 226.177 680.49C227.634 682.854 229.666 685.293 230.909 687.726C222.838 689.53 214.143 689.096 205.935 688.734Q202.453 688.39 198.962 688.148C176.919 685.524 165.511 679.977 145.958 671.066C142.379 667.763 137.869 665.17 133.911 662.287C108.206 643.566 88.8318 614.06 77.8596 584.484C75.6553 578.543 73.2948 572.144 72.3075 565.881Z"
     id="path11" />
  <defs
     id="defs12">
    <linearGradient
       id="linearGradient2"
       gradientUnits="userSpaceOnUse"
       x1="132.81581"
       y1="400.44122"
       x2="127.66091"
       y2="285.03748">
      <stop
         offset="0"
         stop-color="#010005"
         id="stop1"
         style="stop-color:#ff7f2a;stop-opacity:1" />
      <stop
         offset="1"
         stop-color="#0A9AC7"
         id="stop2"
         style="stop-color:#ffba42;stop-opacity:1" />
    </linearGradient>
    <linearGradient
       id="gradient_0"
       gradientUnits="userSpaceOnUse"
       x1="132.81581"
       y1="400.44122"
       x2="127.66091"
       y2="285.03748">
      <stop
         offset="0"
         stop-color="#010005"
         id="stop11" />
      <stop
         offset="1"
         stop-color="#0A9AC7"
         id="stop12" />
    </linearGradient>
    <linearGradient
       inkscape:collect="always"
       xlink:href="#linearGradient2"
       id="linearGradient1"
       gradientUnits="userSpaceOnUse"
       x1="132.81581"
       y1="400.44122"
       x2="127.37894"
       y2="286.35333"
       gradientTransform="matrix(6.0699496,0,0,6.0699496,-281.33586,-1559.3357)" />
  </defs>
  <path
     fill="url(#gradient_0)"
     d="M95.5224 295.334C98.4492 295.506 107.349 289.496 111.066 288.255C115.463 286.787 119.865 286.332 124.446 285.9C136.349 284.776 144.009 285.109 155.063 290.558C155.254 290.652 155.443 290.751 155.633 290.847L156.389 290.327C172.931 298.188 181.209 311.17 187.363 327.885C188.568 333.865 189.636 340.157 188.581 346.245C188.044 361.311 180.976 375.571 169.978 385.748C164.178 391.116 157.556 395.248 150.028 397.693C146.917 398.636 143.685 399.321 140.485 399.879Q139.026 400.135 137.556 400.319Q136.086 400.503 134.609 400.614Q133.132 400.725 131.651 400.763Q130.17 400.801 128.689 400.766Q127.208 400.73 125.731 400.621Q124.253 400.513 122.783 400.331Q121.313 400.15 119.854 399.895Q118.394 399.641 116.949 399.315Q115.504 398.989 114.077 398.592Q112.65 398.195 111.244 397.728Q109.838 397.261 108.457 396.725Q107.076 396.189 105.724 395.585Q104.371 394.981 103.05 394.311Q101.728 393.641 100.442 392.907Q99.1555 392.172 97.907 391.375Q96.6584 390.578 95.4508 389.72C82.6395 380.426 74.8178 365.98 72.2903 350.566Q71.9407 347.779 71.845 344.972Q71.7493 342.165 71.9083 339.361Q72.0673 336.557 72.4797 333.779Q72.892 331 73.5544 328.271C76.5896 315.84 84.3445 302.14 95.5224 295.334Z"
     id="path12" />
  <path
     fill="#FFBA42"
     d="M854.699 282.647C854.543 278.373 855.405 274.332 857.934 270.81Q858.425 270.132 858.981 269.506Q859.537 268.88 860.153 268.313Q860.769 267.747 861.439 267.244Q862.109 266.742 862.825 266.309Q863.542 265.876 864.299 265.518Q865.055 265.159 865.843 264.878Q866.632 264.596 867.445 264.395Q868.257 264.195 869.086 264.076C874.41 263.267 878.789 264.853 882.985 268.049C880.329 274.61 875.878 280.569 869.132 283.319C863.987 285.417 859.688 284.734 854.699 282.647Z"
     id="path15" />
  <path
     fill="#F5A201"
     d="M882.985 268.049C886.393 271.612 888.605 275.826 888.546 280.864C888.495 285.318 886.73 289.6 883.457 292.652C879.934 295.938 875.071 297.501 870.291 297.238C865.797 296.99 861.585 295.155 858.669 291.674C856.478 289.058 855.349 285.964 854.699 282.647C859.688 284.734 863.987 285.417 869.132 283.319C875.878 280.569 880.329 274.61 882.985 268.049Z"
     id="path16" />
  <path
     fill="#1096ae"
     d="m 871.48256,666.6745 c 25.98592,0.51248 50.02284,9.27207 68.98248,27.40067 21.2747,20.34076 31.84477,48.90093 32.38495,78.02699 q 0.0653,2.45356 0.008,4.90711 -0.0574,2.45356 -0.23744,4.8992 -0.17808,2.44762 -0.48082,4.88336 -0.30076,2.43575 -0.72221,4.85369 -0.42344,2.41596 -0.9656,4.81015 -0.54215,2.39222 -1.20303,4.75673 -0.6589,2.36254 -1.43652,4.68946 -0.77959,2.3289 -1.67197,4.61426 -0.89239,2.28537 -1.89755,4.52325 -1.00517,2.23986 -2.12114,4.42431 -1.11597,2.18644 -2.34077,4.31351 -1.22282,2.12707 -2.55051,4.19083 -1.32769,2.06376 -2.75629,4.05826 -1.4286,1.9945 -2.95614,3.91579 -1.52753,1.92129 -3.14807,3.76344 -1.62053,1.84412 -3.3301,3.60316 c -20.66527,21.30438 -46.61556,32.18906 -76.10769,32.59271 q -2.30713,-0.0673 -4.60635,-0.23745 -2.30119,-0.17016 -4.5925,-0.44124 -2.2913,-0.27108 -4.56875,-0.64307 -2.27746,-0.37199 -4.5371,-0.84489 -2.25767,-0.47093 -4.49357,-1.04276 -2.23392,-0.57184 -4.44212,-1.24063 -2.2082,-0.66879 -4.38474,-1.43454 -2.17654,-0.76575 -4.31746,-1.62845 -2.14093,-0.86072 -4.2403,-1.81642 -2.10135,-0.95372 -4.15719,-2.00044 -2.05584,-1.04672 -4.06419,-2.18445 -2.00836,-1.13576 -3.96329,-2.36056 -1.9569,-1.22282 -3.85643,-2.5327 -1.89953,-1.3079 -3.73969,-2.70089 -1.84017,-1.39101 -3.61702,-2.86314 -1.77882,-1.47015 -3.4884,-3.01945 c -20.17653,-18.40562 -33.9105,-45.71922 -34.977,-73.16342 -1.07442,-27.70934 10.10904,-57.12231 29.05879,-77.31071 20.24578,-21.56754 46.54037,-30.6912 75.53782,-31.76167 z"
     id="path17"
     style="stroke-width:1.97867" />
  <path
     fill="#FEFEFE"
     d="M198.962 688.148Q202.453 688.39 205.935 688.734C208.882 695.993 213.379 702.995 217.348 709.734Q220.001 714.192 222.782 718.572Q225.563 722.951 228.469 727.249Q231.375 731.546 234.405 735.757Q237.434 739.969 240.585 744.091Q243.735 748.213 247.003 752.242Q250.271 756.271 253.654 760.204Q257.037 764.137 260.533 767.97Q264.029 771.803 267.634 775.534Q271.239 779.264 274.951 782.889Q278.662 786.514 282.477 790.029Q286.292 793.545 290.207 796.949Q294.122 800.353 298.134 803.642Q302.146 806.931 306.252 810.103Q310.357 813.274 314.552 816.326Q318.748 819.377 323.03 822.306Q327.312 825.235 331.677 828.039C342.04 834.829 353.537 842.445 365.015 847.159C365.284 847.269 365.56 847.363 365.833 847.465C369.046 851.207 372.102 855.261 374.854 859.357C374.7 859.307 374.544 859.262 374.391 859.207C364.145 855.533 353.926 848.598 344.461 843.12C282.974 807.524 229.628 752.558 198.962 688.148Z"
     id="path19" />
  <path
     fill="#FEFEFE"
     d="M172.715 599.615C169.54 585.496 168.009 570.798 167.225 556.365Q167.074 553.382 166.975 550.398Q166.877 547.413 166.832 544.427Q166.787 541.441 166.796 538.454Q166.804 535.468 166.865 532.482Q166.927 529.496 167.041 526.512Q167.156 523.528 167.324 520.546Q167.491 517.565 167.712 514.586Q167.933 511.608 168.207 508.634Q168.481 505.66 168.808 502.692Q169.134 499.724 169.514 496.761Q169.894 493.799 170.326 490.844Q170.758 487.889 171.243 484.943Q171.728 481.996 172.266 479.058Q172.803 476.12 173.393 473.193Q173.982 470.265 174.624 467.349Q175.266 464.432 175.959 461.527Q176.653 458.622 177.398 455.73Q178.143 452.839 178.939 449.96Q179.736 447.082 180.584 444.219Q181.432 441.355 182.33 438.507Q183.229 435.659 184.178 432.828Q185.127 429.996 186.127 427.182Q187.126 424.368 188.176 421.572Q189.225 418.776 190.324 415.999Q191.423 413.222 192.572 410.465Q193.72 407.709 194.917 404.973Q196.115 402.237 197.361 399.523Q198.607 396.809 199.901 394.117Q201.195 391.426 202.537 388.758Q203.878 386.09 205.267 383.446Q206.657 380.802 208.093 378.184Q209.529 375.565 211.011 372.973Q212.637 370.125 214.317 367.309Q215.997 364.492 217.729 361.708Q219.461 358.923 221.245 356.172Q223.03 353.42 224.866 350.703Q226.701 347.986 228.588 345.303Q230.474 342.621 232.411 339.974Q234.348 337.328 236.334 334.718Q238.32 332.109 240.354 329.537Q242.389 326.965 244.472 324.432Q246.555 321.899 248.685 319.406Q250.815 316.912 252.991 314.459Q255.168 312.006 257.39 309.595Q259.612 307.183 261.88 304.814Q264.147 302.444 266.458 300.118Q268.77 297.792 271.124 295.509Q273.479 293.227 275.876 290.989Q278.274 288.751 280.712 286.559Q283.151 284.367 285.631 282.221Q288.111 280.075 290.63 277.976Q293.15 275.877 295.708 273.825Q298.267 271.774 300.864 269.771Q303.46 267.768 306.094 265.815Q308.728 263.861 311.398 261.957Q314.069 260.053 316.774 258.2Q319.48 256.347 322.219 254.545Q324.959 252.743 327.733 250.993Q330.506 249.243 333.312 247.545Q336.117 245.847 338.954 244.202Q341.792 242.558 344.659 240.967Q347.527 239.376 350.424 237.839Q353.321 236.302 356.246 234.82Q359.171 233.338 362.124 231.911C379.058 223.534 396.817 215.918 415.041 210.833C413.692 213.555 412.198 216.654 409.885 218.692C394.756 222.968 380.221 229.358 366.092 236.186Q363.093 237.629 360.122 239.129Q357.151 240.629 354.209 242.186Q351.268 243.743 348.357 245.357Q345.446 246.97 342.566 248.639Q339.687 250.308 336.84 252.032Q333.993 253.756 331.18 255.535Q328.367 257.313 325.588 259.146Q322.81 260.978 320.067 262.863Q317.324 264.748 314.618 266.686Q311.912 268.624 309.244 270.613Q306.576 272.603 303.946 274.643Q301.317 276.683 298.727 278.774Q296.137 280.864 293.588 283.004Q291.039 285.144 288.531 287.333Q286.024 289.521 283.559 291.757Q281.094 293.994 278.672 296.277Q276.251 298.56 273.874 300.89Q271.497 303.219 269.165 305.594Q266.833 307.969 264.547 310.388Q262.261 312.807 260.022 315.27Q257.783 317.732 255.592 320.237Q253.401 322.743 251.259 325.289Q249.116 327.836 247.023 330.424Q244.93 333.012 242.886 335.639Q240.843 338.266 238.851 340.932Q236.859 343.599 234.919 346.303Q232.978 349.007 231.09 351.747Q229.202 354.488 227.366 357.265Q225.531 360.041 223.75 362.853Q221.968 365.664 220.241 368.509Q218.514 371.354 216.842 374.232Q215.17 377.11 213.554 380.019Q212.112 382.639 210.718 385.285Q209.324 387.93 207.978 390.601Q206.632 393.271 205.334 395.965Q204.037 398.66 202.788 401.377Q201.539 404.094 200.339 406.833Q199.14 409.573 197.99 412.333Q196.84 415.094 195.74 417.875Q194.64 420.655 193.59 423.456Q192.54 426.256 191.541 429.074Q190.543 431.893 189.595 434.729Q188.647 437.566 187.75 440.419Q186.854 443.271 186.009 446.14Q185.164 449.009 184.371 451.892Q183.577 454.776 182.837 457.673Q182.096 460.57 181.407 463.48Q180.719 466.39 180.083 469.312Q179.447 472.234 178.864 475.168Q178.281 478.101 177.751 481.044Q177.221 483.987 176.744 486.939Q176.267 489.891 175.844 492.852Q175.42 495.812 175.05 498.78Q174.68 501.747 174.364 504.721Q174.048 507.694 173.785 510.673Q173.522 513.652 173.314 516.635Q173.105 519.619 172.95 522.605Q172.795 525.592 172.694 528.58Q172.593 531.569 172.546 534.559Q172.498 537.549 172.505 540.54Q172.512 543.53 172.573 546.52Q172.634 549.51 172.748 552.498Q172.863 555.486 173.032 558.472Q173.201 561.458 173.423 564.44C174.409 577.266 175.629 591.05 179.261 603.433C179.368 603.797 179.485 604.158 179.61 604.516C177.119 603.094 174.957 601.392 172.715 599.615Z"
     id="path22" />
  <path
     fill="#FEFEFE"
     d="M511.019 802.032L511.52 802.167C513.042 806.923 512.07 821.78 512.068 827.354L512.021 877.55C499.751 877.683 487.939 876.243 476.041 873.267L496.347 821.573C497.901 818.674 498.746 815.074 499.668 811.93C501.072 808.93 502.014 805.521 503.113 802.386C505.723 802.096 508.395 802.115 511.019 802.032Z"
     id="path25" />
  <defs
     id="defs30">
    <linearGradient
       id="gradient_1"
       gradientUnits="userSpaceOnUse"
       x1="450.95633"
       y1="485.12915"
       x2="297.79678"
       y2="311.01923">
      <stop
         offset="0"
         stop-color="#0B2F4F"
         id="stop29" />
      <stop
         offset="1"
         stop-color="#026289"
         id="stop30" />
    </linearGradient>
  </defs>
  <path
     fill="#FEFEFE"
     d="M608.534 210.171C619.426 212.017 634.324 218.941 644.638 223.471C702.707 248.976 755.76 288.324 792.69 340.361Q795.184 343.854 797.59 347.409Q799.996 350.963 802.313 354.576Q804.63 358.189 806.857 361.858Q809.083 365.528 811.218 369.252Q813.353 372.975 815.395 376.751Q817.436 380.526 819.383 384.351Q821.331 388.176 823.182 392.049Q825.034 395.921 826.789 399.838Q828.544 403.755 830.201 407.714Q831.857 411.674 833.416 415.673Q834.974 419.672 836.432 423.709Q837.89 427.746 839.248 431.818Q840.605 435.89 841.861 439.994Q843.117 444.098 844.271 448.233Q845.425 452.367 846.475 456.528Q847.526 460.69 848.473 464.876Q849.42 469.063 850.262 473.271Q851.105 477.48 851.843 481.708Q852.581 485.937 853.213 490.182Q853.846 494.427 854.373 498.687Q854.899 502.947 855.32 507.218Q855.741 511.49 856.056 515.77Q856.371 520.051 856.579 524.338Q856.787 528.625 856.889 532.916Q856.99 537.207 856.985 541.499Q856.98 545.791 856.869 550.082Q856.757 554.373 856.539 558.659Q856.321 562.946 855.997 567.226Q855.672 571.506 855.241 575.776Q854.811 580.047 854.274 584.305Q853.737 588.564 853.095 592.808Q852.453 597.051 851.705 601.278C837.234 686.324 787.087 770.682 716.4 820.772C698.427 833.508 680.32 844.852 660.354 854.182C657.327 855.597 653.412 857.944 650.137 858.472C652.944 854.482 655.608 849.813 659.025 846.355C665.114 845.095 671.432 841.073 676.836 838.03C704.452 822.48 727.194 804.825 750.027 783.014C759.639 773.832 769.35 764.244 777.654 753.843C818.64 702.503 848.278 627.001 849.812 561.088C851.709 535.959 850.711 511.894 846.409 487.041C846.575 480.938 844.672 474.136 843.347 468.188C837.313 441.107 828.742 414.289 815.937 389.586Q813.996 385.801 811.962 382.065Q809.929 378.329 807.804 374.643Q805.679 370.958 803.465 367.326Q801.25 363.695 798.947 360.118Q796.644 356.542 794.254 353.023Q791.864 349.504 789.388 346.046Q786.912 342.587 784.352 339.19Q781.792 335.792 779.149 332.459Q776.506 329.126 773.782 325.859Q771.058 322.592 768.255 319.392Q765.452 316.193 762.571 313.063Q759.69 309.934 756.733 306.876Q753.776 303.818 750.744 300.834Q747.713 297.849 744.609 294.94Q741.506 292.032 738.332 289.2Q735.158 286.368 731.915 283.615Q728.672 280.862 725.363 278.189Q722.053 275.517 718.679 272.926Q715.305 270.336 711.869 267.829Q708.432 265.322 704.935 262.901Q701.438 260.479 697.882 258.144Q694.327 255.809 690.715 253.562Q687.103 251.315 683.437 249.157Q679.771 247 676.053 244.933Q672.335 242.866 668.568 240.891Q664.8 238.916 660.985 237.034Q657.171 235.152 653.311 233.365Q649.451 231.577 645.548 229.885Q641.645 228.193 637.702 226.597Q633.759 225.001 629.778 223.502Q625.797 222.004 621.78 220.604Q617.764 219.203 613.714 217.902C611.563 215.72 610.032 212.813 608.534 210.171Z"
     id="path43" />
  <path
     fill="#A8E8F9"
     d="M511.52 802.167C515.556 802.219 519.769 802.023 523.777 802.442C523.854 807.947 526.359 814.98 528.529 820.056Q534.604 837.284 540.956 854.411C543.303 860.733 546.254 867.197 547.906 873.71C535.941 876.221 524.241 877.472 512.021 877.55L512.068 827.354C512.07 821.78 513.042 806.923 511.52 802.167Z"
     id="path47" />
  <defs
     id="defs61">
    <linearGradient
       id="gradient_2"
       gradientUnits="userSpaceOnUse"
       x1="561.25195"
       y1="399.9877"
       x2="463.31598"
       y2="338.49677">
      <stop
         offset="0"
         stop-color="#FFBD26"
         id="stop60" />
      <stop
         offset="1"
         stop-color="#E9D999"
         id="stop61" />
    </linearGradient>
  </defs>
  <path
     fill="#1096ae"
     d="m 421.57628,213.05809 q 0.60962,-3.65544 1.50059,-7.25283 0.8932,-3.59738 2.05884,-7.11437 1.16786,-3.517 2.60592,-6.9335 1.43583,-3.41651 3.13292,-6.71021 1.69709,-3.29592 3.64427,-6.44893 1.94719,-3.15302 4.13331,-6.14525 2.18388,-2.99224 4.59554,-5.80807 2.41165,-2.81359 5.03321,-5.43292 1.57204,-1.56757 3.22,-3.05922 1.64796,-1.48942 3.36515,-2.89845 1.71718,-1.40903 3.50136,-2.73321 1.78194,-1.32418 3.62865,-2.56126 1.84446,-1.23486 3.74922,-2.3804 1.90253,-1.14553 3.85865,-2.19728 1.95835,-1.05175 3.96359,-2.00748 2.00525,-0.95573 4.05515,-1.8132 2.04768,-0.85748 4.13554,-1.61447 2.0901,-0.75699 4.21146,-1.41126 2.1236,-0.65428 4.27622,-1.20583 2.15039,-0.55155 4.32758,-0.99816 2.17495,-0.4466 4.37,-0.78602 2.19505,-0.33941 4.40574,-0.57388 2.20844,-0.23447 4.42583,-0.35952 2.21738,-0.12728 4.43922,-0.14514 c 28.01091,2.2866 51.34588,7.17913 71.28221,28.48653 0.0469,0.0514 0.0893,0.11165 0.13398,0.16748 17.38847,19.55225 27.75634,42.78228 26.01683,69.39308 q -0.14068,2.33796 -0.39748,4.667 -0.25679,2.32679 -0.62747,4.6402 -0.37292,2.3134 -0.85971,4.60447 -0.4868,2.29107 -1.08748,4.55534 -0.60068,2.26427 -1.31301,4.49505 -0.71233,2.23078 -1.53408,4.42583 -0.82175,2.19282 -1.75292,4.34098 -0.93116,2.15039 -1.96728,4.25165 -1.03612,2.09904 -2.17719,4.14671 -1.13883,2.04544 -2.38039,4.03282 -1.23932,1.98738 -2.57689,3.91 -1.33758,1.92262 -2.76894,3.77602 -1.43136,1.85564 -2.95427,3.63535 -1.52292,1.77971 -3.13069,3.4835 -1.61,1.70155 -3.30262,3.32272 -1.69039,1.61893 -3.46117,3.15301 -1.82214,1.58544 -3.72243,3.07486 -1.90029,1.49165 -3.87204,2.88505 -1.97175,1.3934 -4.01273,2.68631 -2.03874,1.29292 -4.14223,2.48311 -2.10127,1.18797 -4.26059,2.26874 -2.15932,1.08078 -4.37,2.05214 -2.21069,0.97136 -4.46826,1.83107 -2.25758,0.85971 -4.55535,1.6033 -2.29777,0.74583 -4.62903,1.37331 -2.33126,0.62747 -4.69156,1.13883 -2.36253,0.50913 -4.74515,0.89991 -2.38262,0.39077 -4.78311,0.66097 -2.40049,0.27019 -4.80991,0.41981 -2.40942,0.14961 -4.82554,0.1764 -2.41388,0.029 -4.82777,-0.0648 -2.41389,-0.0938 -4.81884,-0.30816 C 480.60372,318.9765 457.8605,308.066 441.6533,288.43113 c -11.41516,-13.82681 -16.99546,-28.84159 -20.78711,-46.1586 -1.20136,-9.90117 -0.35282,-19.34458 0.71009,-29.21449 z"
     id="path62"
     style="stroke-width:2.23301" />
  <path
     fill="#28b1bf"
     d="m 421.57628,213.05809 c 9.55506,0.0536 40.81723,-1.72389 48.40724,1.5966 -0.90214,4.47719 -1.96952,8.84496 -1.89583,13.43827 l 0.31039,3.82515 c -15.57526,4.98631 -31.42294,7.79098 -47.53189,10.35447 -1.20136,-9.90117 -0.35282,-19.34458 0.71009,-29.21449 z"
     id="path63"
     style="stroke-width:2.23301" />
  <path
     fill="#f5a201"
     d="m 512.7524,225.40441 c 14.5972,-0.78155 28.94877,0.7034 43.50354,0.55379 -2.47194,13.86477 -6.37748,25.99226 -18.50497,34.53799 -7.57661,5.33914 -15.87448,7.42477 -24.90255,8.48768 0.60738,-14.44089 -0.002,-29.11624 -0.096,-43.57946 z"
     id="path64"
     style="stroke-width:2.23301" />
  <path
     fill="#ffba42"
     d="m 512.35716,182.25369 c 13.43603,1.17903 25.88061,6.12961 34.49333,16.95749 1.24379,1.56311 2.33127,3.25573 3.39195,4.94612 3.09049,7.15457 5.38156,13.9407 6.0135,21.8009 -14.55477,0.14961 -28.90634,-1.33534 -43.50354,-0.55379 q -0.7302,-21.5709 -0.39524,-43.15072 z"
     id="path65"
     style="stroke-width:2.23301" />
  <path
     fill="#ffba42"
     d="m 468.08769,228.09296 c 14.72895,-1.8668 29.84198,-1.46709 44.66471,-2.68855 0.0938,14.46322 0.7034,29.13857 0.096,43.57946 -8.41399,-0.80165 -16.67167,-3.01233 -23.97808,-7.36224 -11.53128,-6.86204 -17.38177,-16.93963 -20.47226,-29.70352 z"
     id="path66"
     style="stroke-width:2.23301" />
  <path
     fill="#ffd35b"
     d="m 469.98352,214.65469 c 1.81321,-5.29447 3.95913,-10.55545 7.23942,-15.13089 8.59933,-11.98681 21.50838,-14.92099 35.13422,-17.27011 q -0.33496,21.57982 0.39524,43.15072 c -14.82273,1.22146 -29.93576,0.82175 -44.66471,2.68855 -0.0737,-4.59331 0.99369,-8.96108 1.89583,-13.43827 z"
     id="path67"
     style="stroke-width:2.23301" />
  <path
     fill="#28b1bf"
     d="m 512.21424,134.46723 c 28.01091,2.2866 51.34588,7.17913 71.28221,28.48653 0.0469,0.0514 0.0893,0.11165 0.13398,0.16748 -6.29932,19.61478 -17.68992,28.83042 -33.38799,41.03606 -1.06068,-1.69039 -2.14816,-3.38301 -3.39195,-4.94612 -8.61272,-10.82788 -21.0573,-15.77846 -34.49333,-16.95749 0.68553,-15.81196 -0.0581,-31.94324 -0.14292,-47.78646 z"
     id="path68"
     style="stroke-width:2.23301" />
  <path
     fill="#77cbc7"
     d="m 421.57628,213.05809 q 0.60962,-3.65544 1.50059,-7.25283 0.8932,-3.59738 2.05884,-7.11437 1.16786,-3.517 2.60592,-6.9335 1.43583,-3.41651 3.13292,-6.71021 1.69709,-3.29592 3.64427,-6.44893 1.94719,-3.15302 4.13331,-6.14525 2.18388,-2.99224 4.59554,-5.80807 2.41165,-2.81359 5.03321,-5.43292 1.57204,-1.56757 3.22,-3.05922 1.64796,-1.48942 3.36515,-2.89845 1.71718,-1.40903 3.50136,-2.73321 1.78194,-1.32418 3.62865,-2.56126 1.84446,-1.23486 3.74922,-2.3804 1.90253,-1.14553 3.85865,-2.19728 1.95835,-1.05175 3.96359,-2.00748 2.00525,-0.95573 4.05515,-1.8132 2.04768,-0.85748 4.13554,-1.61447 2.0901,-0.75699 4.21146,-1.41126 2.1236,-0.65428 4.27622,-1.20583 2.15039,-0.55155 4.32758,-0.99816 2.17495,-0.4466 4.37,-0.78602 2.19505,-0.33941 4.40574,-0.57388 2.20844,-0.23447 4.42583,-0.35952 2.21738,-0.12728 4.43922,-0.14514 c 0.0849,15.84322 0.82845,31.9745 0.14292,47.78646 -13.62584,2.34912 -26.53489,5.2833 -35.13422,17.27011 -3.28029,4.57544 -5.42621,9.83642 -7.23942,15.13089 -7.59001,-3.32049 -38.85218,-1.54301 -48.40724,-1.5966 z"
     id="path69"
     style="stroke-width:2.23301" />
</svg>
